<svg width="20" height="20" viewBox="0 0 20 20" fill="none" xmlns="http://www.w3.org/2000/svg">
<path d="M15.9566 20C7.15954 20 0.00240819 12.8405 0 4.04336C0.00240819 1.81337 1.81819 0 4.04335 0C4.27213 0 4.49848 0.0192632 4.71522 0.0577942C5.19204 0.137264 5.6448 0.298615 6.06142 0.541842C6.12162 0.577965 6.16255 0.635772 6.17218 0.703202L7.10174 6.56231C7.11378 6.62974 7.09211 6.69959 7.04636 6.75016C6.53341 7.31849 5.87838 7.72788 5.1487 7.93257L4.79712 8.03132L4.92955 8.37086C6.12883 11.4244 8.57074 13.8639 11.6267 15.068L11.9663 15.2029L12.065 14.8513C12.2697 14.1216 12.6791 13.4666 13.2474 12.9537C13.2884 12.9151 13.3438 12.8958 13.3992 12.8958C13.4112 12.8958 13.4232 12.8958 13.4377 12.8983L19.2968 13.8278C19.3666 13.8399 19.4244 13.8784 19.4606 13.9386C19.7014 14.3552 19.8627 14.8104 19.9446 15.2872C19.9831 15.4991 20 15.7231 20 15.9567C20 18.1842 18.1866 19.9976 15.9566 20Z" fill="#D31F23"/>
</svg>
