<svg width="40" height="42" viewBox="0 0 40 42" fill="none" xmlns="http://www.w3.org/2000/svg">
<circle cx="20" cy="21" r="19" stroke="#18358A" stroke-width="2"/>
<path d="M15.5991 17.4653H25.7505L25.2549 20.1143H15.1719C15.1491 20.3763 15.1377 20.6611 15.1377 20.9688C15.1377 21.2878 15.1491 21.6353 15.1719 22.0112H24.9131L24.4175 24.6772H15.5991C16.6359 28.3345 18.7835 30.1631 22.042 30.1631C24.1042 30.1631 26.0752 29.3826 27.9551 27.8218V31.5645C26.3145 32.7266 24.3092 33.3076 21.9395 33.3076C19.319 33.3076 17.16 32.5443 15.4624 31.0176C13.7648 29.4909 12.6312 27.3774 12.0615 24.6772H9.29297L9.78857 22.0112H11.7539C11.7539 21.1681 11.7653 20.5358 11.7881 20.1143H9.29297L9.75439 17.4653H12.1641C12.859 14.7879 14.0838 12.6802 15.8384 11.1421C17.6043 9.59261 19.695 8.81787 22.1104 8.81787C23.9219 8.81787 25.9157 9.19954 28.0918 9.96289L27.4253 13.2271C25.4429 12.384 23.637 11.9624 22.0078 11.9624C18.8177 11.9624 16.6815 13.7967 15.5991 17.4653Z" fill="#18358A"/>
</svg>
