<svg width="26" height="20" viewBox="0 0 26 20" fill="none" xmlns="http://www.w3.org/2000/svg">
<path d="M25.1181 0.500772C25.0529 0.239675 24.9596 0.160431 24.8011 0.0811695C24.4562 -0.0866783 23.8361 0.0578346 23.8361 0.0578346C23.8361 0.0578346 1.79498 5.70871 0.498989 6.44072C0.219279 6.59924 0.121384 6.69715 0.0654415 6.81837C-0.200283 7.40118 0.429064 7.73222 0.429064 7.73222L5.75288 10.0401C5.75288 10.0401 5.95333 10.0914 6.03258 10.0495C7.35655 9.37808 19.3561 3.29357 20.0321 3.11639C20.1393 3.09308 20.2092 3.13971 20.1859 3.20498C19.8363 4.10017 9.17466 11.9144 9.17466 11.9144C9.17466 11.9144 9.13271 11.9564 9.10474 12.0123L9.09075 12.003L8.06515 17.4068C8.06515 17.4068 7.6922 19.0573 9.51964 17.542C10.811 16.4743 12.0417 15.5978 12.6571 15.1735C14.4239 16.6561 16.3213 18.2926 17.1278 19.1272C17.5333 19.5468 17.897 19.6448 18.2 19.6634C19.0344 19.71 19.3561 18.8195 19.3561 18.8195C19.3561 18.8195 24.7172 3.55001 25.0436 1.4659C25.0762 1.26075 25.1042 1.13486 25.1181 0.990323C25.1368 0.7945 25.1415 0.594021 25.1181 0.500772Z" fill="white"/>
</svg>
