<svg width="27" height="27" viewBox="0 0 27 27" fill="none" xmlns="http://www.w3.org/2000/svg">
<path d="M25.0817 6.82303C22.7974 2.78069 18.4805 0.155741 13.7767 0.0065433C9.00768 -0.142655 4.10342 2.26316 1.59536 6.86033C-0.688942 11.0519 -0.507135 16.1992 2.05687 20.2975C1.71656 22.1671 1.37624 24.0321 1.03126 25.8971C3.02653 25.5707 5.02181 25.2443 7.02174 24.9226C7.73966 25.3143 12.5274 27.8133 18.1169 25.7479C18.8162 25.4914 24.2192 23.384 26.1586 17.4487C27.9254 12.045 25.4873 7.55037 25.0817 6.82769V6.82303ZM24.2006 16.6468C22.6342 21.6682 18.1122 23.5052 17.5155 23.7337C12.2896 25.7479 7.77694 22.9924 7.2921 22.6846C6.07537 22.9457 4.85864 23.2068 3.63724 23.4633L4.21064 19.752C1.72588 16.2971 1.39956 11.7326 3.37618 7.99796C5.4507 4.07219 9.56709 2.01139 13.5669 2.08599C17.5295 2.16059 21.1984 4.32396 23.1703 7.70423C23.5199 8.31035 25.6271 12.0683 24.1959 16.6421L24.2006 16.6468Z" fill="white"/>
<path d="M10.0378 7.09814C10.187 7.09814 10.3175 7.19139 10.3641 7.33127C10.6112 8.07726 11.5902 10.3572 11.5156 10.6043C11.4224 10.898 10.2989 11.7606 10.2523 12.1802C10.2103 12.5998 11.0448 13.7701 11.9212 14.6886C13.1146 15.9381 15.0026 16.7541 15.1565 16.824C15.3103 16.8939 16.4805 15.1595 16.7229 15.0523C16.9653 14.945 20.0794 16.6235 20.0794 16.9126C20.0794 17.2017 19.837 18.1854 19.2636 18.9687C18.8626 19.5142 17.9816 19.752 17.3289 19.8406C17.3149 19.8406 17.2963 19.8406 17.2823 19.8406C16.7881 19.7613 13.3664 19.3743 10.4294 16.4743C8.03789 14.1151 7.31996 11.4342 7.09619 10.3619C7.09619 10.3479 7.09152 10.3339 7.09152 10.3152C7.07754 9.95622 7.09152 8.89318 7.84674 7.96536C8.14043 7.60635 8.64857 7.26599 8.83504 7.14943C8.88166 7.12146 8.93295 7.10747 8.98889 7.10747H10.0425L10.0378 7.09814Z" fill="white"/>
</svg>
