<svg width="33" height="23" viewBox="0 0 33 23" fill="none" xmlns="http://www.w3.org/2000/svg">
<path fill-rule="evenodd" clip-rule="evenodd" d="M26.6204 22.2437C25.8757 22.3245 25.1136 22.3386 24.383 22.3368C18.6841 22.3315 12.9851 22.3263 7.28799 22.3227C5.4949 22.3227 3.542 22.2648 2.15635 21.1247C0.595079 19.837 0.270186 17.6042 0.143739 15.5839C-0.0318819 12.8153 -0.0459333 10.0379 0.098076 7.26759C0.177106 5.74626 0.315841 4.18804 0.970908 2.81077C1.44157 1.82173 2.2266 0.932823 3.23115 0.465533C4.24277 -0.00466555 5.29524 0.00491707 6.376 0.0147573C6.54294 0.0162773 6.71056 0.0178034 6.8788 0.0175684C8.38388 0.0158116 9.88895 0.0144939 11.394 0.0131763C12.8991 0.0118586 14.4042 0.0105409 15.9092 0.00878418C17.474 0.00702745 19.0393 0.00570977 20.6045 0.00439209C22.1697 0.00307441 23.7349 0.00175673 25.2997 0C26.7784 0 28.3661 0.0298645 29.5726 0.885391C31.1303 1.98862 31.5536 4.08791 31.7485 5.98693C32.1085 9.48458 32.1138 13.0191 31.7626 16.5168C31.6168 17.959 31.3744 19.4839 30.4243 20.5783C29.483 21.664 28.0868 22.0821 26.6221 22.2419L26.6204 22.2437ZM21.0186 11.1709L12.7147 15.5839V6.6709L21.0186 11.1709Z" fill="white"/>
</svg>
